<svg width="594" height="93" viewBox="0 0 594 93" fill="none" xmlns="http://www.w3.org/2000/svg">
<path d="M592.144 28.0109C592.144 39.0934 582.934 48.0776 571.572 48.0776C560.211 48.0776 551 39.0934 551 28.0109C551 16.9284 560.211 7.94425 571.572 7.94425C582.934 7.94425 592.144 16.9284 592.144 28.0109Z" fill="#C19700"/>
<path d="M551 28.0109C551 39.0934 560.211 48.0776 571.572 48.0776C582.934 48.0776 592.144 39.0934 592.144 28.0109C592.144 16.9284 582.934 7.94425 571.572 7.94425C560.211 7.94425 551 16.9284 551 28.0109ZM551 28.0109H407.682M407.431 28.584L369.814 1.064L45.2977 1.8992L1 36L1.00002 93" stroke="white" stroke-width="2"/>
</svg>
