<svg width="843" height="93" viewBox="0 0 843 93" fill="none" xmlns="http://www.w3.org/2000/svg">
<path d="M1.9278 71.9113C1.9278 82.9939 11.1383 91.978 22.5 91.978C33.8617 91.978 43.0722 82.9939 43.0722 71.9113C43.0722 60.8288 33.8617 51.8447 22.5 51.8447C11.1383 51.8447 1.9278 60.8288 1.9278 71.9113Z" fill="#C19700"/>
<path d="M43.0722 71.9113C43.0722 82.9939 33.8617 91.978 22.5 91.978C11.1383 91.978 1.9278 82.9939 1.9278 71.9113C1.9278 60.8288 11.1383 51.8447 22.5 51.8447C33.8617 51.8447 43.0722 60.8288 43.0722 71.9113ZM43.0722 71.9113L160 73.0776L249 1H802L842 51.8447" stroke="white" stroke-width="2"/>
</svg>
