<svg width="836" height="168" viewBox="0 0 836 168" fill="none" xmlns="http://www.w3.org/2000/svg">
<path d="M1 146C1 157.083 10.2105 166.067 21.5722 166.067C32.9339 166.067 42.1444 157.083 42.1444 146C42.1444 134.917 32.9339 125.933 21.5722 125.933C10.2105 125.933 1 134.917 1 146Z" fill="#C19700"/>
<path d="M42.1444 146C42.1444 157.083 32.9339 166.067 21.5722 166.067C10.2105 166.067 1 157.083 1 146C1 134.917 10.2105 125.933 21.5722 125.933C32.9339 125.933 42.1444 134.917 42.1444 146ZM42.1444 146H153L242 1H795L835 51.8447" stroke="white" stroke-width="2"/>
</svg>
